<svg xmlns="http://www.w3.org/2000/svg" xmlns:xlink="http://www.w3.org/1999/xlink" width="500" zoomAndPan="magnify" viewBox="0 0 375 149.999998" height="200" preserveAspectRatio="xMidYMid meet" version="1.0"><defs><g/><clipPath id="id1"><path d="M 334 0 L 374 0 L 374 38.25 L 334 38.25 Z M 334 0 " clip-rule="nonzero"/></clipPath><clipPath id="id2"><path d="M 339 0 L 369 0 L 369 38.25 L 339 38.25 Z M 339 0 " clip-rule="nonzero"/></clipPath><clipPath id="id3"><path d="M 348 0 L 360 0 L 360 38.25 L 348 38.25 Z M 348 0 " clip-rule="nonzero"/></clipPath><clipPath id="id4"><path d="M 331.644531 13 L 375 13 L 375 25 L 331.644531 25 Z M 331.644531 13 " clip-rule="nonzero"/></clipPath><clipPath id="id5"><path d="M 166.296875 87.496094 L 196.296875 87.496094 L 196.296875 125.746094 L 166.296875 125.746094 Z M 166.296875 87.496094 " clip-rule="nonzero"/></clipPath></defs><g clip-path="url(#id1)"><path fill="#f297a3" d="M 354.015625 38.25 C 343.351562 38.25 334.671875 29.671875 334.671875 19.125 C 334.671875 8.578125 343.351562 0 354.015625 0 C 364.679688 0 373.355469 8.578125 373.355469 19.125 C 373.355469 29.671875 364.679688 38.25 354.015625 38.25 Z M 354.015625 1.417969 C 344.140625 1.417969 336.109375 9.363281 336.109375 19.125 C 336.109375 28.886719 344.140625 36.832031 354.015625 36.832031 C 363.886719 36.832031 371.917969 28.886719 371.917969 19.125 C 371.917969 9.363281 363.886719 1.417969 354.015625 1.417969 Z M 354.015625 1.417969 " fill-opacity="1" fill-rule="nonzero"/></g><path fill="#f297a3" d="M 354.015625 13.257812 C 348.636719 13.257812 343.460938 11.015625 339.808594 7.109375 L 340.863281 6.148438 C 344.242188 9.761719 349.035156 11.835938 354.015625 11.835938 C 358.992188 11.835938 363.785156 9.761719 367.164062 6.148438 L 368.21875 7.109375 C 364.566406 11.015625 359.390625 13.257812 354.015625 13.257812 Z M 354.015625 13.257812 " fill-opacity="1" fill-rule="nonzero"/><path fill="#f297a3" d="M 340.863281 32.175781 L 339.808594 31.210938 C 343.460938 27.304688 348.636719 25.066406 354.015625 25.066406 C 359.390625 25.066406 364.566406 27.304688 368.21875 31.210938 L 367.164062 32.175781 C 363.785156 28.558594 358.992188 26.484375 354.015625 26.484375 C 349.039062 26.484375 344.242188 28.558594 340.863281 32.175781 Z M 340.863281 32.175781 " fill-opacity="1" fill-rule="nonzero"/><g clip-path="url(#id2)"><path fill="#f297a3" d="M 354.015625 38.25 C 350.15625 38.25 346.546875 36.230469 343.84375 32.566406 C 341.195312 28.964844 339.738281 24.191406 339.738281 19.125 C 339.738281 14.058594 341.195312 9.285156 343.84375 5.683594 C 346.546875 2.019531 350.15625 0 354.015625 0 C 357.871094 0 361.480469 2.019531 364.183594 5.683594 C 366.832031 9.285156 368.292969 14.058594 368.292969 19.125 C 368.292969 24.191406 366.832031 28.964844 364.183594 32.566406 C 361.484375 36.230469 357.871094 38.25 354.015625 38.25 Z M 354.015625 1.417969 C 346.933594 1.417969 341.171875 9.363281 341.171875 19.125 C 341.171875 28.886719 346.933594 36.832031 354.015625 36.832031 C 361.09375 36.832031 366.855469 28.886719 366.855469 19.125 C 366.855469 9.363281 361.09375 1.417969 354.015625 1.417969 Z M 354.015625 1.417969 " fill-opacity="1" fill-rule="nonzero"/></g><g clip-path="url(#id3)"><path fill="#f297a3" d="M 354.015625 38.25 C 352.238281 38.25 350.722656 36.207031 349.621094 32.339844 C 348.617188 28.800781 348.0625 24.105469 348.0625 19.125 C 348.0625 14.144531 348.617188 9.449219 349.621094 5.910156 C 350.722656 2.042969 352.238281 0 354.015625 0 C 355.789062 0 357.308594 2.042969 358.40625 5.910156 C 359.414062 9.449219 359.964844 14.144531 359.964844 19.125 C 359.964844 24.105469 359.414062 28.800781 358.40625 32.339844 C 357.308594 36.207031 355.789062 38.25 354.015625 38.25 Z M 354.015625 1.417969 C 352.128906 1.417969 349.496094 8.15625 349.496094 19.125 C 349.496094 30.097656 352.128906 36.832031 354.015625 36.832031 C 355.898438 36.832031 358.53125 30.09375 358.53125 19.125 C 358.53125 8.15625 355.898438 1.417969 354.015625 1.417969 Z M 354.015625 1.417969 " fill-opacity="1" fill-rule="nonzero"/></g><path fill="#f4f4f4" d="M 373.890625 22.933594 C 373.152344 23.746094 333.4375 23.859375 332.699219 22.933594 C 331.960938 22.011719 331.960938 15.300781 332.699219 14.375 C 333.4375 13.449219 372.941406 13.683594 373.890625 14.375 C 374.839844 15.070312 374.628906 22.125 373.890625 22.933594 Z M 373.890625 22.933594 " fill-opacity="1" fill-rule="nonzero"/><g clip-path="url(#id4)"><path fill="#aa95c7" d="M 352.289062 24.011719 C 347.148438 24.011719 342.414062 23.957031 338.953125 23.855469 C 332.738281 23.671875 332.539062 23.421875 332.359375 23.199219 C 331.761719 22.449219 331.714844 19.53125 331.714844 18.65625 C 331.714844 17.78125 331.761719 14.863281 332.359375 14.113281 C 332.542969 13.886719 332.726562 13.652344 338.511719 13.484375 C 341.742188 13.390625 346.09375 13.339844 351.089844 13.339844 C 356.511719 13.339844 362.070312 13.402344 366.335938 13.507812 C 373.671875 13.6875 373.96875 13.90625 374.144531 14.035156 C 374.394531 14.21875 374.703125 14.628906 374.863281 16.203125 C 375.089844 18.433594 374.910156 22.453125 374.207031 23.222656 C 374.03125 23.414062 373.8125 23.652344 366.871094 23.84375 C 362.9375 23.949219 357.621094 24.011719 352.289062 24.011719 Z M 333 22.613281 C 333.871094 22.878906 340.175781 23.160156 352.289062 23.160156 C 363.25 23.160156 372.488281 22.914062 373.605469 22.597656 C 373.796875 22.246094 374.058594 20.777344 374.089844 18.648438 C 374.125 16.332031 373.863281 14.996094 373.652344 14.738281 C 372.59375 14.441406 362.367188 14.191406 351.089844 14.191406 C 339.675781 14.191406 333.839844 14.441406 333 14.699219 C 332.8125 15.0625 332.574219 16.433594 332.574219 18.65625 C 332.574219 20.878906 332.8125 22.25 333 22.613281 Z M 333 22.613281 " fill-opacity="1" fill-rule="nonzero"/></g><path fill="#aa95c7" d="M 373.890625 14.375 C 373.613281 14.175781 370.054688 14.011719 365.132812 13.90625 L 365.132812 23.460938 C 370.097656 23.351562 373.671875 23.171875 373.890625 22.9375 C 374.628906 22.125 374.839844 15.070312 373.890625 14.375 Z M 373.890625 14.375 " fill-opacity="1" fill-rule="nonzero"/><path fill="#aa95c7" d="M 364.703125 23.894531 L 364.703125 13.46875 L 365.144531 13.480469 C 373.636719 13.664062 373.96875 13.902344 374.144531 14.035156 C 374.394531 14.21875 374.703125 14.628906 374.863281 16.203125 C 375.089844 18.433594 374.910156 22.449219 374.207031 23.21875 C 374.027344 23.421875 373.773438 23.695312 365.144531 23.886719 Z M 365.5625 14.339844 L 365.5625 23.023438 C 371.96875 22.875 373.324219 22.667969 373.605469 22.597656 C 373.800781 22.242188 374.058594 20.773438 374.089844 18.648438 C 374.125 16.335938 373.863281 15 373.652344 14.738281 C 373.421875 14.679688 372.171875 14.488281 365.5625 14.339844 Z M 365.5625 14.339844 " fill-opacity="1" fill-rule="nonzero"/><path fill="#aa95c7" d="M 339.628906 21.414062 C 339.453125 21.414062 339.296875 21.308594 339.230469 21.144531 L 338.179688 18.554688 L 337.015625 21.160156 C 336.945312 21.3125 336.789062 21.414062 336.621094 21.414062 C 336.617188 21.414062 336.617188 21.414062 336.617188 21.414062 C 336.445312 21.410156 336.289062 21.308594 336.222656 21.152344 L 334.59375 17.292969 C 334.503906 17.078125 334.605469 16.828125 334.824219 16.734375 C 335.042969 16.644531 335.296875 16.746094 335.390625 16.964844 L 336.632812 19.910156 L 337.804688 17.289062 C 337.871094 17.132812 338.027344 17.035156 338.195312 17.035156 C 338.199219 17.035156 338.203125 17.035156 338.203125 17.035156 C 338.378906 17.039062 338.53125 17.144531 338.597656 17.300781 L 339.597656 19.769531 L 340.566406 16.992188 C 340.640625 16.769531 340.886719 16.648438 341.113281 16.726562 C 341.335938 16.804688 341.457031 17.046875 341.378906 17.269531 L 340.039062 21.125 C 339.980469 21.292969 339.820312 21.410156 339.640625 21.414062 C 339.636719 21.414062 339.632812 21.414062 339.628906 21.414062 Z M 339.628906 21.414062 " fill-opacity="1" fill-rule="nonzero"/><path fill="#aa95c7" d="M 347.4375 21.414062 C 347.261719 21.414062 347.105469 21.308594 347.039062 21.144531 L 345.984375 18.554688 L 344.820312 21.160156 C 344.75 21.316406 344.589844 21.410156 344.421875 21.414062 C 344.25 21.410156 344.097656 21.308594 344.03125 21.152344 L 342.402344 17.292969 C 342.308594 17.078125 342.414062 16.828125 342.632812 16.734375 C 342.851562 16.644531 343.105469 16.746094 343.195312 16.964844 L 344.4375 19.910156 L 345.609375 17.289062 C 345.679688 17.132812 345.832031 17.035156 346.003906 17.035156 C 346.007812 17.035156 346.007812 17.035156 346.011719 17.035156 C 346.183594 17.039062 346.339844 17.144531 346.402344 17.300781 L 347.40625 19.769531 L 348.371094 16.992188 C 348.449219 16.769531 348.695312 16.648438 348.917969 16.726562 C 349.144531 16.804688 349.265625 17.046875 349.1875 17.269531 L 347.84375 21.125 C 347.785156 21.292969 347.628906 21.410156 347.449219 21.414062 C 347.445312 21.414062 347.441406 21.414062 347.4375 21.414062 Z M 347.4375 21.414062 " fill-opacity="1" fill-rule="nonzero"/><path fill="#aa95c7" d="M 355.246094 21.414062 C 355.070312 21.414062 354.910156 21.308594 354.84375 21.144531 L 353.792969 18.554688 L 352.628906 21.160156 C 352.558594 21.316406 352.402344 21.410156 352.230469 21.414062 C 352.058594 21.410156 351.902344 21.308594 351.835938 21.152344 L 350.207031 17.292969 C 350.117188 17.078125 350.21875 16.828125 350.441406 16.734375 C 350.660156 16.644531 350.910156 16.746094 351.003906 16.964844 L 352.246094 19.910156 L 353.417969 17.289062 C 353.488281 17.132812 353.640625 17.035156 353.8125 17.035156 C 353.8125 17.035156 353.816406 17.035156 353.820312 17.035156 C 353.992188 17.039062 354.148438 17.144531 354.210938 17.300781 L 355.214844 19.769531 L 356.179688 16.992188 C 356.257812 16.769531 356.5 16.648438 356.726562 16.726562 C 356.949219 16.804688 357.070312 17.046875 356.992188 17.269531 L 355.652344 21.125 C 355.59375 21.292969 355.433594 21.410156 355.253906 21.414062 C 355.253906 21.414062 355.25 21.414062 355.246094 21.414062 Z M 355.246094 21.414062 " fill-opacity="1" fill-rule="nonzero"/><path fill="#ffffff" d="M 370.121094 19.285156 C 368.996094 20.214844 367.320312 20.066406 366.378906 18.953125 C 365.441406 17.84375 365.59375 16.183594 366.714844 15.253906 C 367.839844 14.328125 369.515625 14.476562 370.457031 15.585938 C 371.394531 16.695312 371.246094 18.355469 370.121094 19.285156 Z M 367.265625 15.910156 C 366.507812 16.535156 366.40625 17.65625 367.042969 18.40625 C 367.675781 19.160156 368.808594 19.257812 369.570312 18.632812 C 370.328125 18.003906 370.429688 16.882812 369.792969 16.132812 C 369.160156 15.382812 368.027344 15.28125 367.265625 15.910156 Z M 367.265625 15.910156 " fill-opacity="1" fill-rule="nonzero"/><path fill="#ffffff" d="M 369.40625 19.324219 L 370.285156 18.59375 L 370.851562 19.265625 L 369.972656 19.992188 Z M 369.40625 19.324219 " fill-opacity="1" fill-rule="nonzero"/><path fill="#ffffff" d="M 372.480469 22.078125 C 372.300781 22.230469 372.027344 22.207031 371.875 22.027344 L 370.496094 20.390625 C 370.34375 20.210938 370.367188 19.941406 370.550781 19.792969 C 370.730469 19.640625 371.003906 19.664062 371.15625 19.84375 L 372.535156 21.480469 C 372.6875 21.660156 372.664062 21.929688 372.480469 22.078125 Z M 372.480469 22.078125 " fill-opacity="1" fill-rule="nonzero"/><path fill="#ffffff" d="M 370.191406 19.808594 L 370.632812 19.445312 L 371.199219 20.113281 L 370.757812 20.480469 Z M 370.191406 19.808594 " fill-opacity="1" fill-rule="nonzero"/><g fill="#9f3f73" fill-opacity="1"><g transform="translate(27.565925, 96.788576)"><g><path d="M 19.140625 -36.898438 L 3.738281 -36.898438 L 3.738281 0 L 11.414062 0 L 11.414062 -15.105469 L 19.140625 -15.105469 C 22.1875 -15.105469 24.796875 -16.136719 26.914062 -18.203125 C 29.027344 -20.269531 30.109375 -22.828125 30.109375 -25.878906 C 30.109375 -28.929688 29.027344 -31.488281 26.914062 -33.652344 C 24.746094 -35.816406 22.1875 -36.898438 19.140625 -36.898438 Z M 17.957031 -21.5 L 11.414062 -21.5 L 11.414062 -30.109375 L 17.957031 -30.109375 C 19.335938 -30.109375 20.46875 -29.667969 21.351562 -28.878906 C 22.238281 -28.09375 22.730469 -27.058594 22.730469 -25.78125 C 22.730469 -24.5 22.238281 -23.46875 21.351562 -22.679688 C 20.46875 -21.894531 19.335938 -21.5 17.957031 -21.5 Z M 17.957031 -21.5 "/></g></g></g><g fill="#9f3f73" fill-opacity="1"><g transform="translate(57.968618, 96.788576)"><g><path d="M 21.351562 0.492188 C 26.566406 0.492188 31.046875 -1.328125 34.734375 -5.019531 C 38.425781 -8.707031 40.292969 -13.1875 40.292969 -18.449219 C 40.292969 -23.664062 38.425781 -28.140625 34.734375 -31.832031 C 31.046875 -35.523438 26.566406 -37.390625 21.351562 -37.390625 C 16.089844 -37.390625 11.609375 -35.523438 7.921875 -31.832031 C 4.230469 -28.140625 2.410156 -23.664062 2.410156 -18.449219 C 2.410156 -13.1875 4.230469 -8.707031 7.921875 -5.019531 C 11.609375 -1.328125 16.089844 0.492188 21.351562 0.492188 Z M 21.351562 -7.035156 C 18.105469 -7.035156 15.398438 -8.117188 13.234375 -10.332031 C 11.019531 -12.496094 9.9375 -15.203125 9.9375 -18.449219 C 9.9375 -21.648438 11.019531 -24.355469 13.234375 -26.566406 C 15.398438 -28.734375 18.105469 -29.863281 21.351562 -29.863281 C 24.550781 -29.863281 27.257812 -28.734375 29.472656 -26.566406 C 31.636719 -24.355469 32.765625 -21.648438 32.765625 -18.449219 C 32.765625 -15.203125 31.636719 -12.496094 29.472656 -10.332031 C 27.257812 -8.117188 24.550781 -7.035156 21.351562 -7.035156 Z M 21.351562 -7.035156 "/></g></g></g><g fill="#9f3f73" fill-opacity="1"><g transform="translate(100.670127, 96.788576)"><g><path d="M 22.484375 -15.351562 C 24.699219 -15.941406 26.519531 -17.21875 27.945312 -19.089844 C 29.371094 -20.960938 30.109375 -23.171875 30.109375 -25.683594 C 30.109375 -28.832031 29.027344 -31.488281 26.960938 -33.652344 C 24.847656 -35.816406 22.238281 -36.898438 19.140625 -36.898438 L 3.738281 -36.898438 L 3.738281 0 L 11.414062 0 L 11.414062 -14.5625 L 14.90625 -14.5625 L 24.058594 0 L 32.914062 0 Z M 18.054688 -20.910156 L 11.414062 -20.910156 L 11.414062 -30.0625 L 18.054688 -30.0625 C 19.386719 -30.0625 20.515625 -29.617188 21.402344 -28.734375 C 22.289062 -27.847656 22.730469 -26.765625 22.730469 -25.484375 C 22.730469 -24.15625 22.289062 -23.074219 21.402344 -22.1875 C 20.515625 -21.304688 19.386719 -20.910156 18.054688 -20.910156 Z M 18.054688 -20.910156 "/></g></g></g><g fill="#9f3f73" fill-opacity="1"><g transform="translate(133.581776, 96.788576)"><g><path d="M 26.914062 -36.898438 L 0.492188 -36.898438 L 0.492188 -30.0625 L 9.890625 -30.0625 L 9.890625 0 L 17.515625 0 L 17.515625 -30.0625 L 26.914062 -30.0625 Z M 26.914062 -36.898438 "/></g></g></g><g fill="#9f3f73" fill-opacity="1"><g transform="translate(160.983554, 96.788576)"><g><path d="M 29.570312 0 L 37.882812 0 L 23.074219 -36.898438 L 14.464844 -36.898438 L -0.34375 0 L 7.96875 0 L 10.628906 -7.132812 L 26.914062 -7.132812 Z M 13.039062 -13.578125 L 18.792969 -29.027344 L 24.550781 -13.578125 Z M 13.039062 -13.578125 "/></g></g></g><g fill="#9f3f73" fill-opacity="1"><g transform="translate(198.519555, 96.788576)"><g><path d="M 26.714844 -30.109375 L 26.714844 -36.898438 L 4.035156 -36.898438 L 4.035156 0 L 11.710938 0 L 11.710938 -15.054688 L 24.648438 -15.054688 L 24.648438 -21.84375 L 11.710938 -21.84375 L 11.710938 -30.109375 Z M 26.714844 -30.109375 "/></g></g></g><g fill="#9f3f73" fill-opacity="1"><g transform="translate(226.216487, 96.788576)"><g><path d="M 21.351562 0.492188 C 26.566406 0.492188 31.046875 -1.328125 34.734375 -5.019531 C 38.425781 -8.707031 40.292969 -13.1875 40.292969 -18.449219 C 40.292969 -23.664062 38.425781 -28.140625 34.734375 -31.832031 C 31.046875 -35.523438 26.566406 -37.390625 21.351562 -37.390625 C 16.089844 -37.390625 11.609375 -35.523438 7.921875 -31.832031 C 4.230469 -28.140625 2.410156 -23.664062 2.410156 -18.449219 C 2.410156 -13.1875 4.230469 -8.707031 7.921875 -5.019531 C 11.609375 -1.328125 16.089844 0.492188 21.351562 0.492188 Z M 21.351562 -7.035156 C 18.105469 -7.035156 15.398438 -8.117188 13.234375 -10.332031 C 11.019531 -12.496094 9.9375 -15.203125 9.9375 -18.449219 C 9.9375 -21.648438 11.019531 -24.355469 13.234375 -26.566406 C 15.398438 -28.734375 18.105469 -29.863281 21.351562 -29.863281 C 24.550781 -29.863281 27.257812 -28.734375 29.472656 -26.566406 C 31.636719 -24.355469 32.765625 -21.648438 32.765625 -18.449219 C 32.765625 -15.203125 31.636719 -12.496094 29.472656 -10.332031 C 27.257812 -8.117188 24.550781 -7.035156 21.351562 -7.035156 Z M 21.351562 -7.035156 "/></g></g></g><g fill="#9f3f73" fill-opacity="1"><g transform="translate(268.918008, 96.788576)"><g><path d="M 11.414062 -6.839844 L 11.414062 -36.898438 L 3.738281 -36.898438 L 3.738281 0 L 23.8125 0 L 23.8125 -6.839844 Z M 11.414062 -6.839844 "/></g></g></g><g fill="#9f3f73" fill-opacity="1"><g transform="translate(292.876121, 96.788576)"><g><path d="M 4.035156 0 L 11.710938 0 L 11.710938 -36.898438 L 4.035156 -36.898438 Z M 4.035156 0 "/></g></g></g><g fill="#9f3f73" fill-opacity="1"><g transform="translate(308.569403, 96.788576)"><g><path d="M 21.351562 0.492188 C 26.566406 0.492188 31.046875 -1.328125 34.734375 -5.019531 C 38.425781 -8.707031 40.292969 -13.1875 40.292969 -18.449219 C 40.292969 -23.664062 38.425781 -28.140625 34.734375 -31.832031 C 31.046875 -35.523438 26.566406 -37.390625 21.351562 -37.390625 C 16.089844 -37.390625 11.609375 -35.523438 7.921875 -31.832031 C 4.230469 -28.140625 2.410156 -23.664062 2.410156 -18.449219 C 2.410156 -13.1875 4.230469 -8.707031 7.921875 -5.019531 C 11.609375 -1.328125 16.089844 0.492188 21.351562 0.492188 Z M 21.351562 -7.035156 C 18.105469 -7.035156 15.398438 -8.117188 13.234375 -10.332031 C 11.019531 -12.496094 9.9375 -15.203125 9.9375 -18.449219 C 9.9375 -21.648438 11.019531 -24.355469 13.234375 -26.566406 C 15.398438 -28.734375 18.105469 -29.863281 21.351562 -29.863281 C 24.550781 -29.863281 27.257812 -28.734375 29.472656 -26.566406 C 31.636719 -24.355469 32.765625 -21.648438 32.765625 -18.449219 C 32.765625 -15.203125 31.636719 -12.496094 29.472656 -10.332031 C 27.257812 -8.117188 24.550781 -7.035156 21.351562 -7.035156 Z M 21.351562 -7.035156 "/></g></g></g><path stroke-linecap="butt" transform="matrix(0.75, 0, 0, 0.75, 0.000003125, 50.624999)" fill="none" stroke-linejoin="miter" d="M 59.713541 9.802085 L 39.18229 9.802085 L 39.18229 59.000005 L 49.416665 59.000005 L 49.416665 38.869795 L 59.713541 38.869795 C 63.786458 38.869795 67.260416 37.489587 70.09375 34.718753 C 72.911458 31.963545 74.354167 28.552086 74.354167 24.500003 C 74.354167 20.432294 72.911458 17.020836 70.09375 14.125002 C 67.197916 11.239585 63.786458 9.802085 59.713541 9.802085 Z M 58.145833 30.333336 L 49.416665 30.333336 L 49.416665 18.848961 L 58.145833 18.848961 C 59.989583 18.848961 61.494791 19.442711 62.677083 20.500002 C 63.848958 21.541669 64.505208 22.916669 64.505208 24.630211 C 64.505208 26.328128 63.848958 27.703128 62.677083 28.76042 C 61.494791 29.802086 59.989583 30.333336 58.145833 30.333336 Z M 103.213544 59.656255 C 110.166669 59.656255 116.140628 57.223963 121.057295 52.307296 C 125.973962 47.390629 128.473962 41.41667 128.473962 34.401045 C 128.473962 27.44792 125.973962 21.473961 121.057295 16.557294 C 116.140628 11.640627 110.166669 9.145835 103.213544 9.145835 C 96.187501 9.145835 90.229168 11.640627 85.296876 16.557294 C 80.375001 21.473961 77.958334 27.44792 77.958334 34.401045 C 77.958334 41.41667 80.375001 47.390629 85.296876 52.307296 C 90.229168 57.223963 96.187501 59.656255 103.213544 59.656255 Z M 103.213544 49.614587 C 98.875002 49.614587 95.270835 48.171879 92.390626 45.223962 C 89.442709 42.343754 87.984376 38.723962 87.984376 34.401045 C 87.984376 30.140628 89.442709 26.520836 92.390626 23.572919 C 95.270835 20.692711 98.875002 19.187502 103.213544 19.187502 C 107.47396 19.187502 111.078127 20.692711 114.026044 23.572919 C 116.927086 26.520836 118.432294 30.140628 118.432294 34.401045 C 118.432294 38.723962 116.927086 42.343754 114.026044 45.223962 C 111.078127 48.171879 107.47396 49.614587 103.213544 49.614587 Z M 161.656255 38.531254 C 164.604172 37.744795 167.036464 36.031253 168.942714 33.552087 C 170.833339 31.052086 171.828131 28.10417 171.828131 24.760419 C 171.828131 20.562502 170.385422 17.020836 167.630214 14.125002 C 164.79688 11.239585 161.317714 9.802085 157.187505 9.802085 L 136.656254 9.802085 L 136.656254 59.000005 L 146.890629 59.000005 L 146.890629 39.588545 L 151.552088 39.588545 L 163.755214 59.000005 L 175.557298 59.000005 Z M 155.744797 31.114586 L 146.890629 31.114586 L 146.890629 18.911461 L 155.744797 18.911461 C 157.526047 18.911461 159.031255 19.505211 160.213547 20.692711 C 161.385422 21.875003 161.979172 23.317711 161.979172 25.015628 C 161.979172 26.79167 161.385422 28.234378 160.213547 29.41667 C 159.031255 30.588545 157.526047 31.114586 155.744797 31.114586 Z M 211.447925 9.802085 L 176.213548 9.802085 L 176.213548 18.911461 L 188.73959 18.911461 L 188.73959 59.000005 L 198.906257 59.000005 L 198.906257 18.911461 L 211.447925 18.911461 Z M 251.526052 59.000005 L 262.604178 59.000005 L 242.859385 9.802085 L 231.375009 9.802085 L 211.630217 59.000005 L 222.729175 59.000005 L 226.265634 49.484379 L 247.984385 49.484379 Z M 229.468759 40.901045 L 237.15626 20.291669 L 244.828135 40.901045 Z M 297.76043 18.848961 L 297.76043 9.802085 L 267.520845 9.802085 L 267.520845 59.000005 L 277.75522 59.000005 L 277.75522 38.932295 L 295.005221 38.932295 L 295.005221 29.869795 L 277.75522 29.869795 L 277.75522 18.848961 Z M 327.54689 59.656255 C 334.494807 59.656255 340.468766 57.223963 345.385433 52.307296 C 350.3021 47.390629 352.8021 41.41667 352.8021 34.401045 C 352.8021 27.44792 350.3021 21.473961 345.385433 16.557294 C 340.468766 11.640627 334.494807 9.145835 327.54689 9.145835 C 320.51564 9.145835 314.557306 11.640627 309.625014 16.557294 C 304.708347 21.473961 302.29168 27.44792 302.29168 34.401045 C 302.29168 41.41667 304.708347 47.390629 309.625014 52.307296 C 314.557306 57.223963 320.51564 59.656255 327.54689 59.656255 Z M 327.54689 49.614587 C 323.208348 49.614587 319.604181 48.171879 316.718764 45.223962 C 313.770847 42.343754 312.317722 38.723962 312.317722 34.401045 C 312.317722 30.140628 313.770847 26.520836 316.718764 23.572919 C 319.604181 20.692711 323.208348 19.187502 327.54689 19.187502 C 331.807307 19.187502 335.411474 20.692711 338.359391 23.572919 C 341.255224 26.520836 342.760432 30.140628 342.760432 34.401045 C 342.760432 38.723962 341.255224 42.343754 338.359391 45.223962 C 335.411474 48.171879 331.807307 49.614587 327.54689 49.614587 Z M 371.218767 49.885421 L 371.218767 9.802085 L 360.984392 9.802085 L 360.984392 59.000005 L 387.750018 59.000005 L 387.750018 49.885421 Z M 393.333352 59.000005 L 403.567728 59.000005 L 403.567728 9.802085 L 393.333352 9.802085 Z M 437.34898 59.656255 C 444.302105 59.656255 450.276064 57.223963 455.192731 52.307296 C 460.109398 47.390629 462.609398 41.41667 462.609398 34.401045 C 462.609398 27.44792 460.109398 21.473961 455.192731 16.557294 C 450.276064 11.640627 444.302105 9.145835 437.34898 9.145835 C 430.317729 9.145835 424.359396 11.640627 419.427104 16.557294 C 414.510437 21.473961 412.09377 27.44792 412.09377 34.401045 C 412.09377 41.41667 414.510437 47.390629 419.427104 52.307296 C 424.359396 57.223963 430.317729 59.656255 437.34898 59.656255 Z M 437.34898 49.614587 C 433.010438 49.614587 429.406271 48.171879 426.526062 45.223962 C 423.578146 42.343754 422.119812 38.723962 422.119812 34.401045 C 422.119812 30.140628 423.578146 26.520836 426.526062 23.572919 C 429.406271 20.692711 433.010438 19.187502 437.34898 19.187502 C 441.609397 19.187502 445.213563 20.692711 448.16148 23.572919 C 451.057314 26.520836 452.562522 30.140628 452.562522 34.401045 C 452.562522 38.723962 451.057314 42.343754 448.16148 45.223962 C 445.213563 48.171879 441.609397 49.614587 437.34898 49.614587 Z M 437.34898 49.614587 " stroke="#f8a9ad" stroke-width="2.460191" stroke-opacity="1" stroke-miterlimit="4"/><g clip-path="url(#id5)"><path fill="#231f20" d="M 175.042969 87.496094 L 178.636719 87.496094 L 178.636719 89.152344 L 180.398438 89.152344 L 180.398438 96.128906 L 183.929688 96.128906 L 183.929688 97.871094 L 189.226562 97.871094 L 189.226562 99.617188 L 192.757812 99.617188 L 192.757812 101.359375 L 194.523438 101.359375 L 194.523438 103.101562 L 196.289062 103.101562 L 196.289062 115.285156 L 194.523438 115.285156 L 194.523438 120.515625 L 192.757812 120.515625 L 192.757812 125.746094 L 175.042969 125.746094 L 175.042969 120.515625 L 173.277344 120.515625 L 173.277344 117.027344 L 171.511719 117.027344 L 171.511719 113.539062 L 169.746094 113.539062 L 169.746094 110.050781 L 167.980469 110.050781 L 167.980469 108.308594 L 166.304688 108.308594 L 166.304688 103.101562 L 171.574219 103.101562 L 171.574219 104.847656 L 173.277344 104.847656 L 173.277344 89.152344 L 175.042969 89.152344 Z M 175.042969 87.496094 " fill-opacity="1" fill-rule="nonzero"/></g><path fill="#1a171b" d="M 175.128906 89.152344 L 175.128906 111.824219 L 173.25 111.824219 L 173.25 106.589844 L 171.484375 106.589844 L 171.484375 104.847656 L 168.070312 104.847656 L 168.070312 108.308594 L 169.832031 108.308594 L 169.832031 110.054688 L 171.597656 110.054688 L 171.597656 113.539062 L 173.363281 113.539062 L 173.363281 117.027344 L 175.128906 117.027344 L 175.128906 120.515625 L 176.894531 120.515625 L 176.894531 124.003906 L 190.902344 124.003906 L 190.902344 120.515625 L 192.667969 120.515625 L 192.667969 115.285156 L 194.433594 115.285156 L 194.433594 103.105469 L 192.667969 103.105469 L 192.667969 101.359375 L 191.019531 101.359375 L 191.019531 106.589844 L 189.140625 106.589844 L 189.140625 99.617188 L 185.722656 99.617188 L 185.722656 104.847656 L 183.84375 104.847656 L 183.84375 97.871094 L 180.425781 97.871094 L 180.425781 104.847656 L 178.546875 104.847656 L 178.546875 89.152344 Z M 175.128906 89.152344 " fill-opacity="1" fill-rule="nonzero"/><path fill="#ffffff" d="M 175.128906 89.152344 L 178.546875 89.152344 L 178.546875 104.847656 L 180.425781 104.847656 L 180.425781 97.871094 L 183.84375 97.871094 L 183.84375 104.847656 L 185.722656 104.847656 L 185.722656 99.617188 L 189.140625 99.617188 L 189.140625 106.589844 L 191.019531 106.589844 L 191.019531 101.359375 L 192.667969 101.359375 L 192.667969 103.105469 L 194.433594 103.105469 L 194.433594 115.285156 L 192.667969 115.285156 L 192.667969 120.515625 L 190.902344 120.515625 L 190.902344 124.003906 L 176.894531 124.003906 L 176.894531 120.515625 L 175.128906 120.515625 L 175.128906 117.027344 L 173.363281 117.027344 L 173.363281 113.539062 L 171.597656 113.539062 L 171.597656 110.054688 L 169.832031 110.054688 L 169.832031 108.308594 L 168.070312 108.308594 L 168.070312 104.847656 L 171.484375 104.847656 L 171.484375 106.589844 L 173.25 106.589844 L 173.25 111.824219 L 175.128906 111.824219 Z M 175.128906 89.152344 " fill-opacity="1" fill-rule="nonzero"/></svg>